<?xml version="1.0" encoding="UTF-8"?>
<svg id="Layer_1" data-name="Layer 1" xmlns="http://www.w3.org/2000/svg" viewBox="0 0 2162.64 2162.64">
  <defs>
    <style>
      .cls-1, .cls-2, .cls-3, .cls-4, .cls-5, .cls-6, .cls-7, .cls-8, .cls-9, .cls-10 {
        stroke: #ed1c24;
      }

      .cls-1, .cls-2, .cls-4, .cls-6 {
        stroke-linejoin: round;
      }

      .cls-1, .cls-2, .cls-6 {
        stroke-linecap: round;
      }

      .cls-1, .cls-4 {
        stroke-width: 24.72px;
      }

      .cls-1, .cls-4, .cls-6 {
        fill: none;
      }

      .cls-2, .cls-3 {
        stroke-width: 14.81px;
      }

      .cls-2, .cls-3, .cls-9, .cls-10 {
        fill: #ed1c24;
      }

      .cls-3, .cls-5, .cls-7, .cls-8, .cls-9, .cls-10 {
        stroke-miterlimit: 10;
      }

      .cls-5, .cls-7, .cls-11 {
        fill: #fff;
      }

      .cls-5, .cls-8, .cls-9 {
        stroke-width: 37.03px;
      }

      .cls-6 {
        stroke-width: 44.44px;
      }

      .cls-8 {
        fill: #010101;
      }

      .cls-11 {
        stroke-width: 0px;
      }
    </style>
  </defs>
  <path class="cls-9" d="M1795.97,283.38l-296,296c-113.4-94.71-259.32-151.66-418.65-151.66s-306.93,57.64-420.62,153.34l-297.93-297.93c-36.93-36.93-8.8-100,43.4-97.14,75.93,4.2,163.33-.2,256.7-23.09,206.28-50.52,250.52-144.29,414.74-144.39,164.22-.1,208.46,93.63,414.79,144.39,94.42,23.28,183,27.73,260.21,23.28,52.15-2.97,80.28,60.26,43.35,97.18Z"/>
  <path class="cls-9" d="M1999.73,1492.35c-23.28,94.47-27.73,183.05-23.28,260.26,2.97,52.15-60.26,80.23-97.18,43.3l-296-296c94.71-113.4,151.66-259.32,151.66-418.6s-57.64-306.98-153.34-420.67l297.93-297.88c36.93-36.98,100-8.8,97.14,43.35-4.25,75.93.2,163.37,23.09,256.75,50.52,206.23,144.29,250.52,144.39,414.74.1,164.22-93.63,208.46-144.39,414.74Z"/>
  <path class="cls-9" d="M1756.52,1976.59c-75.93-4.2-163.37.25-256.75,23.08-206.23,50.52-250.52,144.34-414.74,144.44-164.22.1-208.46-93.63-414.74-144.44-94.47-23.23-183.05-27.68-260.26-23.28-52.15,3.02-80.23-60.21-43.3-97.14l296-296c113.4,94.71,259.32,151.66,418.6,151.66s306.98-57.64,420.67-153.34l297.88,297.88c36.98,36.98,8.8,100.05-43.35,97.14Z"/>
  <path class="cls-9" d="M581.06,1501.94l-297.88,297.93c-36.98,36.93-100.05,8.8-97.14-43.4,4.2-75.93-.25-163.33-23.08-256.7-50.52-206.28-144.34-250.52-144.44-414.74-.1-164.22,93.63-208.46,144.44-414.79,23.23-94.42,27.68-183,23.28-260.21-3.02-52.15,60.21-80.28,97.14-43.35l296,296c-94.71,113.4-151.66,259.32-151.66,418.65s57.64,306.93,153.34,420.62Z"/>
  <circle class="cls-5" cx="1081.33" cy="1081.31" r="653.6"/>
  <g>
    <path class="cls-10" d="M709.6,671.65c-10.05-9.88-26.23-9.92-36.32,0-10.2,10.03-10.33,26.43-.31,36.62,13.22,13.45,98.67,97.45,102.31,100.93l25.91,24.9c4.35,4.11,8.54,8.4,13.12,12.28,4.59,3.88,9.78,7.15,14.6,10.8,4.88,3.59,9.1,7.84,13.32,12.08l12.74,12.66,25.49,25.32,203.9,202.57,203.4,203.07,202.72,203.75.07.07c7.6,7.56,19.9,7.53,27.46-.07,7.57-7.6,7.53-19.9-.07-27.46l-203.75-202.72-203.07-203.4-202.57-203.9-25.32-25.49-12.66-12.74c-4.25-4.22-8.49-8.44-12.08-13.32-3.65-4.82-6.92-10.01-10.8-14.6-3.88-4.58-8.17-8.76-12.28-13.12l-24.9-25.91c-33.1-34.65-66.77-68.72-100.93-102.31Z"/>
    <g>
      <path class="cls-10" d="M699.38,908.51c-16.88-10.51-30.52-26.42-39.25-46.08-6.06-13.99-8.53-28.43-7.33-42.86.36-3.85.78-7.68,1.87-11.36l1.68-6.21,2.37-5.94c2.79-6.69,7.38-13.5,14.03-20.8,7.01-6.45,14-11.17,20.78-14.05l5.92-2.36,6.17-1.67c2.79-.81,5.59-1.21,8.2-1.51l15.23-1.8-10.88-10.81c-12.78-12.69-26.38-26.23-39.9-39.99-4.86-4.94-14.22-27.66-21.56-47.91,20.2,7.49,42.83,16.98,47.71,21.77,35.05,34.47,68.95,68.83,100.76,102.14l24.91,25.93c1.22,1.29,2.49,2.6,3.77,3.92,2.91,3,5.65,5.84,8.21,8.86,2.18,2.58,4.2,5.44,6.33,8.46.77,1.08,1.55,2.19,2.35,3.3-3.21,5.51-14.37,16.66-19.88,19.88-1.1-.79-2.21-1.58-3.3-2.35-3.02-2.13-5.87-4.15-8.47-6.34-3.01-2.55-5.84-5.29-8.85-8.2-1.32-1.27-2.63-2.55-3.96-3.81l-25.87-24.85c-1.98-1.89-3.92-3.78-5.85-5.68-1.65-1.62-3.31-3.23-4.97-4.84l-1.65-1.58-2.25-.38c-5.14-.87-9.62-1.44-13.69-1.74-3.16-.23-6.23-.34-9.16-.34-8.03,0-15.15.85-21.18,2.54l-.29.08-.28.1c-.41.15-.99.3-1.6.46-1.24.32-2.75.71-4.31,1.47l-2.78,1.05-2.4,1.45c-3.43,1.63-5.87,3.76-8.04,5.66l-1.1.96-.22.22c-5.28,5.37-9.01,12.21-11.42,20.93-2.31,8.37-3.07,18.86-2.2,30.35,1.23,16.71,5.73,34.13,12.36,53.94Z"/>
      <path class="cls-10" d="M669.46,668.01c24.2,9.66,29.23,13.73,29.79,14.23,34.97,34.4,68.81,68.69,100.6,101.97l24.85,25.87c1.29,1.36,2.58,2.7,3.83,3.99,2.82,2.91,5.48,5.66,7.86,8.47,1.74,2.06,3.44,4.42,5.21,6.91-2.94,3.52-7.3,7.87-10.81,10.81-2.5-1.77-4.85-3.46-6.89-5.19-2.83-2.4-5.58-5.06-8.49-7.88-1.29-1.25-2.62-2.54-3.98-3.82l-25.91-24.89c-1.92-1.83-3.88-3.75-5.78-5.61-1.67-1.63-3.33-3.26-5.02-4.88l-3.3-3.17-4.51-.76c-5.37-.91-10.07-1.5-14.41-1.82-3.32-.24-6.57-.36-9.67-.36-8.7,0-16.5.95-23.18,2.82l-.53.14-.56.21c-.15.05-.6.17-.93.25-1.34.35-3.26.84-5.36,1.82l-1.87.71-1.26.47-1.15.69-1.54.93c-4.17,2.05-7.15,4.65-9.37,6.59-.28.24-.55.48-.83.72l-.47.4-.43.44c-6.18,6.29-10.53,14.19-13.28,24.15-2.57,9.31-3.4,20.37-2.45,32.85.77,10.44,2.74,21.07,5.65,32.29-7.43-7.93-13.66-17.32-18.36-27.9-5.57-12.88-7.84-26.08-6.75-39.24.34-3.65.7-6.92,1.59-9.95l.05-.17.05-.17,1.52-5.62,2.19-5.49c2.42-5.8,6.49-11.82,12.43-18.36,6.28-5.74,12.45-9.92,18.35-12.44l5.44-2.17,5.62-1.51.14-.04.13-.04c2.27-.66,4.71-1,7.01-1.27l30.45-3.61-21.75-21.61c-12.77-12.68-26.35-26.21-39.81-39.9-.5-.56-4.59-5.59-14.11-29.91M644.63,642.99s18.32,55.09,28.35,65.28c13.22,13.45,26.59,26.76,39.96,40.05-3.12.37-6.23.84-9.39,1.76l-6.46,1.74-6.39,2.55c-8.48,3.59-16.28,9.26-23.22,15.67-6.38,6.96-12.11,14.73-15.64,23.23l-2.55,6.39-1.74,6.45c-1.28,4.32-1.75,8.57-2.14,12.85-1.42,17.02,2.01,32.79,7.94,46.49,12.14,27.31,33.44,47.92,59.04,57.81-9.36-25.73-16.44-48.21-18-69.25-.79-10.36-.2-20.02,1.95-27.82,2.17-7.83,5.35-13.43,9.57-17.71,2.3-1.98,4.5-4.09,7.56-5.48l2.17-1.31,2.53-.96c1.59-.86,3.6-1.07,5.47-1.77,5.58-1.56,12.12-2.27,19.18-2.27,2.79,0,5.67.11,8.61.32,4.26.32,8.61.91,13.01,1.66,3.63,3.49,7.19,7.04,10.83,10.52l25.91,24.9c4.35,4.11,8.54,8.4,13.12,12.28,4.59,3.88,9.78,7.15,14.6,10.8.29.21.66.31,1.1.31,7.02,0,31.86-25.31,28.48-29.9-3.65-4.82-6.92-10.01-10.8-14.6-3.88-4.58-8.17-8.76-12.28-13.12l-24.9-25.91c-33.1-34.65-66.77-68.72-100.93-102.31-10.05-9.88-64.98-28.66-64.98-28.66h0Z"/>
    </g>
  </g>
  <g>
    <path class="cls-10" d="M1378.84,702.2s-553.81,553.81-725.35,725.35c-27.54,27.54,13.24,43.68,56.36,56.36,20.83,6.13,15.93-57.59,79.64-121.3,29.41-29.41,624.88-624.88,624.88-624.88l-35.53-35.53Z"/>
    <path class="cls-2" d="M1348.95,667.4l-58.42,58.42s159.9,131.92,141.55,222.1c22.2-7.88,62.83-25.59,100.9-64.1,36.86-37.29,54.06-76.64,61.88-98.67,0,0-58.37,4.46-210.3-147.47-52.69-52.69-79.23-26.14-79.23-26.14,0,0,39.21,26.96,43.62,55.87Z"/>
    <path class="cls-3" d="M1540.52,764.99s-31.81,87.21-118.8,118.8"/>
    <path class="cls-10" d="M1421.76,883.82c-34.24-78-131.22-158.01-131.22-158.01l58.42-58.42c-4.41-28.92-43.62-55.87-43.62-55.87,0,0,26.55-26.55,79.23,26.14,71.47,71.47,122.23,108.33,155.96,127.33-6.71,16.92-20.58,45.56-48.17,72.77-26.44,26.08-53.9,39.43-70.59,46.06Z"/>
  </g>
  <g>
    <line class="cls-6" x1="1183.88" y1="533.24" x2="1183.88" y2="1629.37"/>
    <line class="cls-6" x1="998.72" y1="533.24" x2="998.72" y2="1629.37"/>
    <line class="cls-8" x1="989.51" y1="650.93" x2="1178.28" y2="650.93"/>
    <line class="cls-8" x1="989.51" y1="1518.28" x2="1178.28" y2="1518.28"/>
    <line class="cls-8" x1="989.51" y1="1394.37" x2="1178.28" y2="1394.37"/>
    <line class="cls-8" x1="989.51" y1="1270.46" x2="1178.28" y2="1270.46"/>
    <line class="cls-8" x1="989.51" y1="1146.56" x2="1178.28" y2="1146.56"/>
    <line class="cls-8" x1="989.51" y1="1022.65" x2="1178.28" y2="1022.65"/>
    <line class="cls-8" x1="989.51" y1="898.74" x2="1178.28" y2="898.74"/>
    <line class="cls-8" x1="989.51" y1="774.83" x2="1178.28" y2="774.83"/>
  </g>
  <path class="cls-7" d="M1473.34,1167.74c-57.51-84.99-170.61-80.07-194.91-77.95-43.49-87.43-117.88-206.64-208.26-228.51-145.75-35.26-208.93,32.37-208.93,32.37-14.61-7.94-27.71-11.07-34.59-6.47-14.86,9.94-16.91,148.33-11.15,229.17h0c-167.68,83.46-171.24,243.32-15.68,181.15,232.74-93.01,340.88,10.11,444.32,10.11,115.19,0,293.86-44.34,229.21-139.88Z"/>
  <g>
    <path class="cls-1" d="M893.84,1161.73c-18.41,4.89-40.59,9.02-67.19,12.22-16.34,1.97-21.16-272.62,0-286.77,21.16-14.15,101.09,44.57,103.44,92.79,1.62,33.15,72.12,97.96,33.53,145.16"/>
    <path class="cls-1" d="M1320.11,1184.98s-104.19-288.44-249.95-323.7c-145.75-35.26-208.93,32.37-208.93,32.37"/>
    <path class="cls-4" d="M1273.68,1090.27s135.01-18.08,199.66,77.46c64.65,95.54-114.02,139.88-229.21,139.88-103.44,0-211.58-103.13-444.32-10.11-155.55,62.17-152-97.7,15.68-181.15"/>
    <path class="cls-10" d="M704.95,1294.02c6.82-2.91,13.5-6.38,20.06-10.23,6.55-3.87,12.95-8.16,19.25-12.68,12.63-9.03,24.79-19.11,36.78-29.58,12.01-10.46,23.93-21.26,35.91-32.16,12.01-10.88,24.06-21.89,36.6-32.54,12.52-10.66,25.39-21.14,38.99-30.93,13.58-9.78,27.82-19,43.02-26.9,15.19-7.9,31.33-14.55,48.32-19.02,16.98-4.45,34.77-6.62,52.5-6.04,17.73.52,35.28,3.85,51.88,9.25,8.32,2.68,16.41,5.88,24.25,9.48,7.86,3.59,15.46,7.6,22.83,11.92,14.73,8.66,28.53,18.51,41.59,29.06,6.54,5.27,12.86,10.76,19.01,16.4l2.18,1.97c.66.61,1.33,1.18,2,1.76,1.35,1.15,2.72,2.27,4.12,3.34,2.79,2.15,5.68,4.11,8.65,5.88,5.95,3.53,12.25,6.26,18.83,8.06,6.57,1.8,13.41,2.66,20.36,2.67,13.92.02,28.24-3.57,41.91-9.4,6.84-2.92,13.55-6.39,20.06-10.29,6.54-3.86,12.73-8.33,19.1-12.6,3.18-2.15,6.39-4.28,9.61-6.4l4.82-3.15c.79-.5,1.59-1.05,2.28-1.47.08-.05.16-.09.22-.12.03-.02.04,0,.06,0-.08.12.11-.1-.24.36-2.15,3.28-1.91,6.9-1.81,5.23.01.12.03.25.05.37.03.21.1.45.15.62.24.74.55,1.04.72,1.13.36.15.32-.39.1-.93-.22-.58-.61-1.27-1.07-1.98-.94-1.41-2.13-2.96-3.4-4.49-2.56-3.1-5.41-6.26-8.23-9.85,4.59-.33,8.98.14,13.4,1.15,2.2.54,4.43,1.18,6.69,2.24,1.14.52,2.3,1.15,3.52,1.99,1.21.88,2.51,1.89,3.84,3.82.65.98,1.34,2.23,1.75,3.97.1.41.18.91.24,1.37.03.25.04.5.05.75.09-1.54.38,2.22-1.88,5.58l-.49.64-.2.27-.3.43c-.72,1.05-1.36,1.91-2.03,2.82-1.33,1.77-2.69,3.45-4.1,5.09-2.82,3.26-5.83,6.32-9.01,9.19-6.34,5.76-13.4,10.63-20.63,15.28-7.26,4.62-14.85,8.83-22.8,12.48-7.95,3.65-16.28,6.74-24.97,9-8.68,2.26-17.74,3.68-26.98,3.94-9.23.25-18.63-.73-27.73-3.01-9.1-2.28-17.86-5.85-25.93-10.42-4.03-2.29-7.91-4.8-11.59-7.51-1.85-1.35-3.65-2.76-5.4-4.19-.87-.72-1.75-1.45-2.6-2.19l-2.37-2.05c-5.91-5.16-11.94-10.15-18.08-14.95-12.28-9.59-25.07-18.37-38.39-25.89-13.34-7.46-27.15-13.82-41.4-18.22-14.23-4.48-28.86-6.96-43.5-7.37-29.35-.87-58.5,7.67-85.51,21.76-13.53,7.04-26.66,15.28-39.39,24.36-12.73,9.08-25.17,18.84-37.41,29.03-12.23,10.21-24.4,20.69-36.58,31.32-12.21,10.61-24.46,21.37-37.17,31.82-12.74,10.41-25.86,20.62-39.9,29.98-7.02,4.67-14.31,9.06-21.88,13.12-7.58,4.04-15.47,7.69-23.74,10.68-6.42,2.32-13.51-1.01-15.83-7.43-2.23-6.19.77-12.99,6.74-15.55l.12-.05Z"/>
    <path class="cls-10" d="M1059.52,885.63c3.81,1.02,7.52,2.39,11.18,3.89,3.67,1.48,7.25,3.16,10.81,4.89,7.09,3.52,13.95,7.51,20.64,11.78,13.32,8.62,25.92,18.41,37.66,29.15,23.6,21.42,43.94,46.27,62.01,72.57,17.9,26.44,33.4,54.5,46.97,83.42,13.53,28.95,25.05,58.82,35.14,89.14,2.16,6.48-1.35,13.48-7.83,15.64-6.48,2.16-13.48-1.35-15.64-7.83-.08-.25-.16-.49-.22-.74l-.02-.06c-7.88-30.1-17.17-59.85-28.48-88.85-11.35-28.96-24.62-57.21-40.36-84.09-15.9-26.74-34.15-52.28-55.88-74.76-10.81-11.27-22.54-21.69-35.11-31.04-6.31-4.64-12.82-9.03-19.61-12.97-3.41-1.95-6.85-3.85-10.39-5.55-3.53-1.72-7.13-3.33-10.87-4.59Z"/>
    <path class="cls-10" d="M1117.69,991.7c6.04,6.19,11.62,12.83,16.98,19.66,5.36,6.83,10.44,13.9,15.25,21.17,9.63,14.54,18.14,29.91,25.41,45.96,3.58,8.05,6.9,16.25,9.82,24.63.75,2.09,1.39,4.21,2.09,6.32l1.03,3.17.94,3.2,1.85,6.43,1.64,6.5c.58,2.16,1.04,4.35,1.5,6.54.46,2.19.96,4.38,1.37,6.58.75,4.42,1.63,8.84,2.16,13.32,1.33,8.92,1.9,17.96,2.31,27.04.31,6.83-4.98,12.63-11.82,12.93-6.83.31-12.63-4.98-12.93-11.82-.02-.47-.02-.93.01-1.39l.03-.4c.6-8.16,1.08-16.39.83-24.65.02-4.14-.32-8.26-.51-12.41-.13-2.07-.36-4.13-.54-6.21-.18-2.07-.37-4.15-.66-6.21l-.79-6.21-1.01-6.19-.52-3.1-.61-3.08c-.42-2.05-.78-4.12-1.25-6.17-1.8-8.21-4.01-16.35-6.51-24.44-5.1-16.14-11.53-31.98-19.21-47.27-3.84-7.65-7.99-15.16-12.45-22.51-4.47-7.34-9.19-14.56-14.44-21.41Z"/>
    <path class="cls-10" d="M975.15,908.94c4.43,2.44,8.69,5.18,12.88,8.02,4.18,2.87,8.3,5.84,12.29,8.99,8.03,6.24,15.68,12.99,22.95,20.18,14.57,14.34,27.45,30.56,38.31,48.22,5.43,8.83,10.18,18.1,14.49,27.61l3.07,7.21c.54,1.2.97,2.43,1.43,3.65l1.37,3.68,1.37,3.69c.46,1.23.82,2.49,1.23,3.73l2.39,7.51c5.84,20.18,9.11,41.23,9.86,62.4.24,6.83-5.1,12.56-11.93,12.81-6.83.24-12.56-5.1-12.81-11.93-.01-.42,0-.83.02-1.24v-.04c1.27-19.18.29-38.55-3.17-57.64l-1.49-7.12c-.26-1.18-.46-2.39-.78-3.56l-.92-3.53-.92-3.53c-.31-1.18-.59-2.37-.97-3.52l-2.16-6.99c-3.11-9.25-6.66-18.41-10.94-27.27-8.55-17.72-19.28-34.58-32.01-49.96-6.34-7.71-13.15-15.08-20.41-22.01-3.6-3.5-7.36-6.83-11.2-10.09-3.85-3.24-7.8-6.38-11.95-9.26Z"/>
  </g>
  <g>
    <path class="cls-11" d="M583.45,1850.22l-35.65-23.79,101.08-151.46,66.53,44.4c19.53,13.03,28.38,22.88,32.46,36.44,4.46,14.46,1.5,32.18-7.59,45.8-7.27,10.9-18.64,19.07-31.06,21.94-6.21,1.44-11.13,1.43-21.28-.09l-16.63,85.4-39.28-26.22,16.85-75.41-25.43-16.97-40.01,59.95ZM640.74,1764.38l21.8,14.55c11.81,7.88,14.83,9.25,20.97,9.4,7.34.31,15.52-4.08,19.92-10.67,3.94-5.9,5-13.4,2.96-19.68-2.27-6.44-4.69-8.71-19-18.26l-20.89-13.94-25.76,38.6Z"/>
    <path class="cls-11" d="M825.9,1815.36l-13.01,35.07,63.99,23.74-11.87,31.99-63.99-23.74-13.86,37.37,81.4,30.2-12.53,33.79-122.09-45.29,63.33-170.72,122.09,45.29-12.06,32.51-81.4-30.2Z"/>
    <path class="cls-11" d="M1027.45,1881.75c-4.36-17.09-11.54-23.27-28.59-25.51-15.7-2.06-25.41,2.72-26.73,12.74-1.39,10.56,4.51,16.01,23.5,22.36,26.32,9.24,36.96,14.21,45.34,21.65,13.81,12.28,19.94,28.5,17.66,45.82-2.49,18.95-15.22,36.27-32.85,44.7-12.63,6.05-30.22,7.87-49.17,5.38-21.11-2.77-37.49-10.15-49.67-22.22-10.2-10.42-14.27-19.22-17.1-37.49l40.15-3.81c2.87,18,13.21,27.34,33.24,29.97,17.86,2.35,29.92-3.5,31.45-15.14,1.42-10.83-5.25-16.66-28.7-24.69-19.5-6.69-30.64-12.01-39.84-19.55-12.97-10.24-18.87-26.16-16.52-44.02,2.2-16.78,10.28-30.04,23.88-39.27,13.6-9.23,29.13-12.15,49.43-9.48,19.49,2.56,34.58,9.22,45.55,20.02,8.55,8.28,12.5,15.96,16.26,31.32l-37.29,7.22Z"/>
    <path class="cls-11" d="M1207.55,1895.87c-1.7-11.63-3.27-16.41-6.9-22.64-5.31-9.35-15.12-14.14-26.8-12.99-22.28,2.21-31.16,23.38-27.12,64.14,3.9,39.39,16.21,55.73,39.58,53.42,17.93-1.77,27.15-13.93,28.94-37.43l41.27-1.61c-.67,18.17-3.04,27.46-9.85,39.11-11.49,19.79-31.41,31.91-57.22,34.47-49.17,4.86-84.59-28.67-90.21-85.45-2.63-26.62,2.2-49.87,14.63-68.39,12.87-19.65,31.84-30.31,57.92-32.89,25.54-2.53,45.69,4.26,59.88,20.14,10.18,11.34,14.75,21.59,19.87,42.75l-43.99,7.37Z"/>
    <path class="cls-11" d="M1439.5,1873.69c10.05,28.01,10.62,41.72,2.42,56.85-8.2,15.13-23.32,26.35-46.19,34.56-24.15,8.67-43.66,9.29-59.79,2.32-14.67-6.92-24.11-19.48-33.14-44.66l-38.36-106.89,43.42-15.59,38.36,106.89c4.98,13.88,8.39,19.32,13.83,23.17,6.58,4.6,16.52,4.8,27.56.84s19.52-11.07,21.86-18.29c2.1-6.26,1.1-12.29-4.16-26.93l-38.36-106.89,34.17-12.27,38.37,106.89Z"/>
    <path class="cls-11" d="M1482.55,1757.23l19.97,31.62,57.71-36.44,18.22,28.86-57.71,36.44,21.28,33.7,73.41-46.35,19.24,30.47-110.11,69.53-97.22-153.97,110.11-69.53,18.51,29.32-73.41,46.35Z"/>
  </g>
  <g>
    <path class="cls-11" d="M837.37,231.66l12.15,39.11,64.4-20.01,10.13,32.59-64.4,20.01,21.06,67.79-42.23,13.13-54.04-173.9,123.58-38.4,10.7,34.41-81.34,25.28Z"/>
    <path class="cls-11" d="M1019.33,340.99l-42.19,5.8-24.81-180.39,42.19-5.8,24.81,180.39Z"/>
    <path class="cls-11" d="M1089.95,337.23l-42.81-2.1,8.95-181.87,79.89,3.93c23.45,1.15,36.11,5.06,46.57,14.59,11.26,10.12,17.81,26.84,17.01,43.2-.64,13.09-6.19,25.94-15.38,34.78-4.59,4.42-8.81,6.95-18.3,10.85l29.59,81.82-47.17-2.32-24.27-73.35-30.54-1.5-3.54,71.98ZM1095.02,234.16l26.18,1.29c14.18.7,17.48.31,22.82-2.7,6.46-3.51,11.22-11.47,11.61-19.38.35-7.09-2.59-14.07-7.57-18.41-5.25-4.36-8.5-5.07-25.68-5.91l-25.09-1.23-2.28,46.35Z"/>
    <path class="cls-11" d="M1297.42,218.64l-10.58,35.87,65.46,19.31-9.65,32.73-65.46-19.31-11.28,38.23,83.27,24.56-10.19,34.56-124.91-36.84,51.51-174.66,124.9,36.84-9.81,33.26-83.27-24.56Z"/>
  </g>
</svg>