<?xml version="1.0" encoding="UTF-8"?>
<svg id="_ëÎÓÈ_1" data-name="ëÎÓÈ 1" xmlns="http://www.w3.org/2000/svg" viewBox="0 0 1000 1000">
  <defs>
    <style>
      .cls-1 {
        fill: #2e3192;
      }

      .cls-1, .cls-2 {
        stroke-width: 0px;
      }

      .cls-2 {
        fill: #fff;
      }
    </style>
  </defs>
  <rect class="cls-2" width="1000" height="1000"/>
  <g>
    <path class="cls-1" d="M546.34,352.86c-1.71-1.02-3.65-1.6-5.69-1.67-2.05-.06-4.03.38-5.79,1.29-1.51.78-1.86,2.8-.69,4.05l.23.24c.82.87,2.08.98,3.15.47.9-.43,1.89-.64,2.93-.59,1.03.03,2.02.31,2.89.79,1.04.57,2.3.54,3.16-.27l.25-.24c1.24-1.16,1.03-3.21-.43-4.08Z"/>
    <path class="cls-1" d="M655.21,500c0-1.57.82-3.02,2.16-3.83l137.78-83.17-80.66-133.63-129.66,78.27c-1.38.83-3.1.86-4.51.07-1.41-.79-2.27-2.28-2.27-3.89v-151.45h-156.09v151.45c0,1.61-.87,3.1-2.27,3.89s-3.13.77-4.51-.07l-129.66-78.27-80.66,133.63,137.78,83.17c1.34.81,2.16,2.26,2.16,3.83s-.82,3.02-2.16,3.83l-137.78,83.17,80.66,133.63,129.66-78.27c1.38-.83,3.1-.86,4.51-.07s2.27,2.28,2.27,3.89v151.45h156.09v-151.45c0-1.61.87-3.1,2.27-3.89,1.4-.79,3.13-.77,4.51.07l129.66,78.27,80.66-133.63-137.78-83.17c-1.34-.81-2.16-2.26-2.16-3.83ZM497.2,323.21c.56-.07,1.12-.1,1.66-.1,7.34,0,13.41,5.84,13.65,13.23,0,.28,0,.59,0,.87l-.42,11.61-11.67,4.2-14.47,5.21-.73-20.31c-.23-7.2,4.82-13.86,11.98-14.71ZM500.34,675.39c0,.82-.67,1.49-1.49,1.49s-1.49-.67-1.49-1.49h0l-.69-19.13,4.46-2.68-.78,21.8ZM527.02,622.64c-.78,6.37-4.79,12.15-10.2,15.15l-12.67,7.61-2,1.2-.8.48-4.92,2.95-23.62,14.17c-.14.09-.3.16-.49.16-.52,0-.93-.43-.93-.96,0-.34.18-.62.43-.79l24.49-15.69,4.31-2.76.84-.54,2.8-1.79,2.8-1.79,7.98-5.1c4.39-2.9,7.12-7.76,7.37-12.78.32-5.02-1.78-10.01-5.43-13.11-.91-.78-1.91-1.44-2.97-2-.5-.26-1.1-.55-1.78-.86l-1.94-.91-1.95-.91.27-7.54,4.67,2.62,1.87,1.05c.59.33,1.26.71,1.99,1.16,1.4.88,2.71,1.92,3.88,3.08,4.73,4.7,6.88,11.55,5.98,17.88ZM492.73,546.76l12.54-8.18-1.77,49.11-.11,3.07-.11,3.07-.29,8.04-.11,2.96-.11,2.96-1.05,29.19-4.02,2.57-1.6,1.02-1.31-36.51-.11-3.07-.11-3.07-.33-9.19-.11-3.2-.12-3.2-1.28-35.6ZM542.56,491.37c-.38,7.84-3.63,15.55-9.03,21.17-1.33,1.42-2.79,2.69-4.32,3.83-1.72,1.26-2.64,1.79-3.91,2.63l-7.17,4.68-7.03,4.58-2.8,1.83-2.8,1.83-1.71,1.11-11.3,7.37-2.67,1.74-.37.24-2.3,1.5-1.28.84c-1.2.79-1.93,1.28-2.85,2.03-1.72,1.39-3.22,3.05-4.43,4.92-5.04,7.38-4.96,18.34.59,26.02,1.36,1.92,3.02,3.65,4.92,5.12.99.73,1.94,1.36,3.08,2.01l1.47.83.35,9.73-1.96-.92-3.88-1.81c-1.39-.66-2.89-1.48-4.27-2.35-2.77-1.8-5.29-4.04-7.43-6.62-8.69-10.29-10.38-26.05-3.5-38.29,1.67-3.05,3.83-5.86,6.35-8.27,1.2-1.17,2.74-2.4,3.87-3.26l3.4-2.6,4.98-3.81,2.66-2.04,2.66-2.03,3.29-2.52,11.02-8.44,2.57-1.96.24-.19,2.81-2.15,3.74-2.86c2.6-1.97,3.79-2.89,4.94-4.39,2.29-2.83,3.41-6.41,3.28-9.97-.12-3.56-1.5-6.96-3.73-9.4-1.14-1.2-2.42-2.25-3.94-3.01l-3.16-1.58.86-23.93,5.3,3.16,3.68,2.19,1.84,1.09,2.24,1.37c3.39,2.15,6.41,4.98,8.87,8.19,4.91,6.48,7.26,14.57,6.82,22.4ZM487.53,402.07l1.35-.38,8.25-2.29,13.27-3.68-1.72,47.83-.11,3.11-.11,3.11-.88,24.43-.11,3.01-.11,2.99-.9,25.12-1.01.77-13.59,10.4-.22.16-1.62-45.09-.11-3.1-.11-3.11-.98-27.28-.12-3.24-.12-3.26-1.06-29.53ZM546.48,380.01c-.41.15-.86.29-1.27.41l-57.88,16.04s-4.98,1.39-5.41,1.52c-.36.1-.7.21-1.03.34-2.96,1.06-5.46,2.79-7.42,5.21-1.97,2.39-3.38,5.48-3.94,8.81-1.06,6.73,1.26,13.71,6.87,18.09.69.6,1.42,1.04,2.27,1.62l3.68,2.19.89.53,1,27.83-5.99-2.98-7.66-3.81-3.83-1.91c-1.6-.87-3.37-1.81-4.96-2.93-6.53-4.31-12.1-10.62-15.53-17.93-3.48-7.29-4.96-15.45-4.38-23.47.59-8.02,3.24-15.98,7.88-22.88,4.59-6.92,11.29-12.61,18.77-16.11,1.85-.93,65.91-24,65.91-24,1.99-.72,4.02-1.05,6.02-1.06,7.28,0,14.11,4.51,16.72,11.75,3.32,9.23-1.47,19.41-10.7,22.73Z"/>
    <path class="cls-1" d="M819.3,575.45l-125-75.45,125-75.45c3.62-2.19,4.79-6.89,2.6-10.52l-95.86-158.81c-2.19-3.62-6.89-4.79-10.52-2.6l-115.11,69.48v-134.46c0-4.23-3.43-7.66-7.66-7.66h-185.5c-4.23,0-7.66,3.43-7.66,7.66v134.46l-115.11-69.48c-3.62-2.19-8.33-1.02-10.52,2.6l-95.86,158.81c-2.19,3.62-1.02,8.33,2.6,10.52l125,75.45-125,75.45c-3.62,2.19-4.79,6.89-2.6,10.52l95.86,158.81c2.19,3.62,6.89,4.79,10.52,2.6l115.11-69.48v134.46c0,4.23,3.43,7.66,7.66,7.66h185.5c4.23,0,7.66-3.43,7.66-7.66v-134.46l115.11,69.48c3.62,2.19,8.33,1.02,10.52-2.6l95.86-158.81c2.19-3.62,1.02-8.33-2.6-10.52ZM805.12,587.79l-85.29,141.29c-1.28,2.11-4.03,2.79-6.14,1.52l-126.71-76.48v148c0,2.47-2,4.47-4.47,4.47h-165.04c-2.47,0-4.47-2-4.47-4.47v-148l-126.71,76.48c-2.11,1.28-4.86.6-6.14-1.52l-85.29-141.29c-.61-1.02-.8-2.23-.51-3.38.28-1.15,1.01-2.14,2.03-2.76l135.27-81.65-135.27-81.65c-1.02-.61-1.75-1.6-2.03-2.76-.28-1.15-.1-2.37.51-3.38l85.29-141.29c1.28-2.11,4.03-2.79,6.14-1.52l126.71,76.48v-148c0-2.47,2-4.47,4.47-4.47h165.04c2.47,0,4.47,2,4.47,4.47v148l126.71-76.48c2.11-1.28,4.86-.6,6.14,1.52l85.29,141.29c.61,1.02.8,2.23.51,3.38-.28,1.15-1.01,2.14-2.03,2.76l-135.27,81.65,135.27,81.65c1.02.61,1.75,1.6,2.03,2.76.28,1.15.1,2.37-.51,3.38Z"/>
  </g>
</svg>